<svg width="1920" height="1080" viewBox="0 0 1920 1080" fill="none" xmlns="http://www.w3.org/2000/svg">
  <rect width="1920" height="1080" fill="#F5F5F5"/>
  <pattern id="steel-grid" width="80" height="80" patternUnits="userSpaceOnUse">
    <path d="M 80 0 L 0 0 0 80" fill="none" stroke="#E0E0E0" stroke-width="1"/>
  </pattern>
  <rect width="1920" height="1080" fill="url(#steel-grid)"/>
  <rect x="100" y="100" width="1720" height="880" rx="16" fill="#FFFFFF" stroke="#E0E0E0" stroke-width="2"/>
  <rect x="150" y="150" width="1620" height="100" rx="8" fill="#F8F8F8" stroke="#E0E0E0" stroke-width="1"/>
  <text x="960" y="205" font-family="Arial, sans-serif" font-size="32" font-weight="bold" text-anchor="middle" fill="#333333">钢铁行业模板</text>
  <rect x="150" y="270" width="480" height="360" rx="8" fill="#F8F8F8" stroke="#E0E0E0" stroke-width="1"/>
  <rect x="650" y="270" width="480" height="360" rx="8" fill="#F8F8F8" stroke="#E0E0E0" stroke-width="1"/>
  <rect x="1150" y="270" width="480" height="360" rx="8" fill="#F8F8F8" stroke="#E0E0E0" stroke-width="1"/>
  <rect x="150" y="650" width="480" height="360" rx="8" fill="#F8F8F8" stroke="#E0E0E0" stroke-width="1"/>
  <rect x="650" y="650" width="480" height="360" rx="8" fill="#F8F8F8" stroke="#E0E0E0" stroke-width="1"/>
  <rect x="1150" y="650" width="480" height="360" rx="8" fill="#F8F8F8" stroke="#E0E0E0" stroke-width="1"/>
  <text x="390" y="320" font-family="Arial, sans-serif" font-size="20" font-weight="bold" text-anchor="middle" fill="#333333">高炉</text>
  <text x="890" y="320" font-family="Arial, sans-serif" font-size="20" font-weight="bold" text-anchor="middle" fill="#333333">转炉</text>
  <text x="1390" y="320" font-family="Arial, sans-serif" font-size="20" font-weight="bold" text-anchor="middle" fill="#333333">轧钢机</text>
  <text x="390" y="700" font-family="Arial, sans-serif" font-size="20" font-weight="bold" text-anchor="middle" fill="#333333">原料堆场</text>
  <text x="890" y="700" font-family="Arial, sans-serif" font-size="20" font-weight="bold" text-anchor="middle" fill="#333333">炼钢车间</text>
  <text x="1390" y="700" font-family="Arial, sans-serif" font-size="20" font-weight="bold" text-anchor="middle" fill="#333333">成品库</text>
  <rect x="250" y="350" width="280" height="200" rx="8" fill="#E8E8E8" stroke="#D0D0D0" stroke-width="1"/>
  <rect x="750" y="350" width="280" height="200" rx="8" fill="#E8E8E8" stroke="#D0D0D0" stroke-width="1"/>
  <rect x="1250" y="350" width="280" height="200" rx="8" fill="#E8E8E8" stroke="#D0D0D0" stroke-width="1"/>
  <rect x="250" y="750" width="280" height="200" rx="8" fill="#E8E8E8" stroke="#D0D0D0" stroke-width="1"/>
  <rect x="750" y="750" width="280" height="200" rx="8" fill="#E8E8E8" stroke="#D0D0D0" stroke-width="1"/>
  <rect x="1250" y="750" width="280" height="200" rx="8" fill="#E8E8E8" stroke="#D0D0D0" stroke-width="1"/>
  <circle cx="390" cy="450" r="60" fill="#8B8B8B" stroke="#7B7B7B" stroke-width="2"/>
  <circle cx="890" cy="450" r="60" fill="#7B7B7B" stroke="#6B6B6B" stroke-width="2"/>
  <rect x="1290" y="420" width="200" height="60" rx="8" fill="#6B6B6B" stroke="#5B5B5B" stroke-width="2"/>
  <rect x="290" y="790" width="200" height="120" rx="8" fill="#9B9B9B" stroke="#8B8B8B" stroke-width="1"/>
  <rect x="790" y="790" width="200" height="120" rx="8" fill="#8B8B8B" stroke="#7B7B7B" stroke-width="1"/>
  <rect x="1290" y="790" width="200" height="120" rx="8" fill="#7B7B7B" stroke="#6B6B6B" stroke-width="1"/>
  <text x="960" y="980" font-family="Arial, sans-serif" font-size="16" text-anchor="middle" fill="#666666">钢铁行业SCADA系统模板 - 包含高炉、转炉、轧钢机等核心设备监控</text>
</svg>