{
  "asset": {
    "version": "2.0",
    "generator": "Khronos glTF Sample Generator"
  },
  "scenes": [
    {
      "nodes": [0]
    }
  ],
  "nodes": [
    {
      "name": "root",
      "children": [1, 2, 3]
    },
    {
      "name": "pump1",
      "mesh": 0,
      "translation": [-2, 0, 0]
    },
    {
      "name": "valve1",
      "mesh": 1,
      "translation": [0, 0, 0]
    },
    {
      "name": "motor1",
      "mesh": 2,
      "translation": [2, 0, 0]
    }
  ],
  "meshes": [
    {
      "name": "pump",
      "primitives": [
        {
          "attributes": {
            "POSITION": 0
          },
          "indices": 1,
          "material": 0
        }
      ]
    },
    {
      "name": "valve",
      "primitives": [
        {
          "attributes": {
            "POSITION": 2
          },
          "indices": 3,
          "material": 1
        }
      ]
    },
    {
      "name": "motor",
      "primitives": [
        {
          "attributes": {
            "POSITION": 4
          },
          "indices": 5,
          "material": 2
        }
      ]
    }
  ],
  "materials": [
    {
      "name": "pumpMaterial",
      "pbrMetallicRoughness": {
        "baseColorFactor": [0.8, 0.8, 0.8, 1.0],
        "metallicFactor": 0.5,
        "roughnessFactor": 0.5
      }
    },
    {
      "name": "valveMaterial",
      "pbrMetallicRoughness": {
        "baseColorFactor": [0.6, 0.6, 0.9, 1.0],
        "metallicFactor": 0.5,
        "roughnessFactor": 0.5
      }
    },
    {
      "name": "motorMaterial",
      "pbrMetallicRoughness": {
        "baseColorFactor": [0.9, 0.6, 0.6, 1.0],
        "metallicFactor": 0.5,
        "roughnessFactor": 0.5
      }
    }
  ],
  "accessors": [
    {
      "bufferView": 0,
      "componentType": 5126,
      "count": 8,
      "type": "VEC3",
      "min": [-1.0, -1.0, -1.0],
      "max": [1.0, 1.0, 1.0]
    },
    {
      "bufferView": 1,
      "componentType": 5123,
      "count": 36,
      "type": "SCALAR"
    },
    {
      "bufferView": 2,
      "componentType": 5126,
      "count": 8,
      "type": "VEC3",
      "min": [-0.5, -1.0, -0.5],
      "max": [0.5, 1.0, 0.5]
    },
    {
      "bufferView": 3,
      "componentType": 5123,
      "count": 36,
      "type": "SCALAR"
    },
    {
      "bufferView": 4,
      "componentType": 5126,
      "count": 8,
      "type": "VEC3",
      "min": [-0.8, -1.0, -0.8],
      "max": [0.8, 1.0, 0.8]
    },
    {
      "bufferView": 5,
      "componentType": 5123,
      "count": 36,
      "type": "SCALAR"
    }
  ],
  "bufferViews": [
    {
      "buffer": 0,
      "byteOffset": 0,
      "byteLength": 96
    },
    {
      "buffer": 0,
      "byteOffset": 96,
      "byteLength": 72
    },
    {
      "buffer": 0,
      "byteOffset": 168,
      "byteLength": 96
    },
    {
      "buffer": 0,
      "byteOffset": 264,
      "byteLength": 72
    },
    {
      "buffer": 0,
      "byteOffset": 336,
      "byteLength": 96
    },
    {
      "buffer": 0,
      "byteOffset": 432,
      "byteLength": 72
    }
  ],
  "buffers": [
    {
      "uri": "data:application/octet-stream;base64,",
      "byteLength": 504
    }
  ]
}
