<svg width="1024" height="1024" viewBox="0 0 1024 1024" fill="none" xmlns="http://www.w3.org/2000/svg">
  <rect width="1024" height="1024" fill="#7B7B7B"/>
  <pattern id="converter-pattern" width="48" height="48" patternUnits="userSpaceOnUse">
    <rect width="48" height="48" fill="#7B7B7B"/>
    <path d="M 0 12 L 48 12 M 0 24 L 48 24 M 0 36 L 48 36" stroke="#6B6B6B" stroke-width="2"/>
    <path d="M 12 0 L 12 48 M 24 0 L 24 48 M 36 0 L 36 48" stroke="#6B6B6B" stroke-width="2"/>
    <rect x="20" y="20" width="8" height="8" fill="#5B5B5B"/>
  </pattern>
  <rect width="1024" height="1024" fill="url(#converter-pattern)"/>
  <rect x="192" y="192" width="640" height="640" rx="64" fill="#6B6B6B" stroke="#5B5B5B" stroke-width="8"/>
  <circle cx="512" cy="512" r="256" fill="#5B5B5B" stroke="#4B4B4B" stroke-width="4"/>
  <rect x="384" y="384" width="256" height="256" rx="32" fill="#4B4B4B" stroke="#3B3B3B" stroke-width="4"/>
  <circle cx="512" cy="512" r="64" fill="#3B3B3B" stroke="#2B2B2B" stroke-width="4"/>
  <rect x="128" y="448" width="128" height="128" rx="16" fill="#5B5B5B" stroke="#4B4B4B" stroke-width="4"/>
  <rect x="768" y="448" width="128" height="128" rx="16" fill="#5B5B5B" stroke="#4B4B4B" stroke-width="4"/>
</svg>